<svg id="Capa_1" enable-background="new 0 0 510.215 510.215" height="512" viewBox="0 0 510.215 510.215" width="512" xmlns="http://www.w3.org/2000/svg"><g><g><path fill="currentColor" d="m439.472 79.089c-16.373-18.312-39.852-28.814-64.416-28.814h-11.056v-31.333h-30v36.141l-79.694 128.857h-167.297c-47.977 0-87.009 39.032-87.009 87.009v105.127h22.316c14.211 0 27.42-4.362 38.367-11.812v127.009h99.984v-99.189l37.446-39.477h94.889v138.667h99.985v-204.138l31.343-79.116c28.961 11.838 58.398.915 72.086-24.344l13.799-25.465zm-378.789 183.343v45.278c0 18.524-13.198 34.024-30.683 37.594v-74.354c0-27.944 20.216-51.24 46.786-56.073-10.091 13.206-16.103 29.689-16.103 47.555zm212.983-52.761 60.334-97.555v11.477c0 33.602-1.08 68.496-13.99 93.455l-.204.41c-5.323 11.109-23.139 27.548-46.14 27.548zm196.374-40.287c-6.338 11.696-20.382 16.668-32.668 11.568l-29.701-12.333-44.684 112.791v179.863h-39.985v-138.666h-116.335v-38.333h-30v47.351l-46 48.495v81.154h-39.984v-198.842c0-26.739 21.753-48.492 48.492-48.492h104.492v61.066h34.147c30.87 0 58.509-22.821 68.945-44.372 15.907-30.91 17.241-69.825 17.241-107.04v-43.32h11.056c16.036 0 31.363 6.856 42.051 18.811l56.676 63.389z"/></g></g></svg>